<svg version="1.0" xmlns="http://www.w3.org/2000/svg" viewBox="0 0 128 128"><path d="M38.6 18c-1.5.5-3.7 1.7-4.8 2.7C29.4 24.6 29 27 29 46.5V65h-4c-2.7 0-4.7.7-6 2-2.7 2.7-2.5 4.6.5 7.4 2.1 2 2.5 3.2 2.5 8 0 6.8 1.7 11.1 5.9 15 2.2 2.1 3.1 3.9 3.1 6.2 0 3.8 1.9 5.7 5.7 5.2 1.9-.2 3.2-1.2 4.1-3.1l1.3-2.7h42.8l1.3 2.7c2.5 5.2 9.8 4 9.8-1.6 0-1.8 1.2-3.8 3.6-6.1 4.7-4.4 6.4-8.5 6.4-15.6 0-4.8.4-6 2.5-8 3-2.8 3.2-4.7.5-7.4-1.5-1.5-3.3-2-7.8-2-5 0-5.9-.3-6.7-2.3-.9-2-1.8-2.2-9.2-2.5-7.8-.3-8.3-.2-9.9 2.3L73.8 65H32V48c0-18.4.8-22.3 5.1-25.4 3.5-2.4 9.3-2.1 12.6.8l2.8 2.4-2.7 2.7c-3.1 3-4.6 8.1-2.9 9.8.8.8 3.4.7 9.9-.6 4.8-1 9.1-2.2 9.5-2.7 1.2-1.1-1.8-6.7-4.2-8-1.1-.5-2.8-1-3.8-1-1.1 0-3-1.4-4.2-3.1-2.3-3.1-7.6-6-10.8-5.8-1 0-3.1.5-4.7.9zm21.5 12c3 1.6 2.3 2.7-2.5 3.9C49.7 35.8 48 35 52 31c2.2-2.2 5.1-2.6 8.1-1zm31.7 42.2l-.3 8.3-6.7.3-6.8.3V64h14.1l-.3 8.2zM74 70.5c0 1.3-3.6 1.5-26.5 1.5S21 71.8 21 70.5 24.6 69 47.5 69s26.5.2 26.5 1.5zm33 0c0 1.2-1.3 1.5-6 1.5s-6-.3-6-1.5 1.3-1.5 6-1.5 6 .3 6 1.5zM74 81.3c0 8.3 1.5 9.7 10.9 9.7 4.6 0 8.2-.5 8.9-1.2.7-.7 1.2-3.9 1.2-7.5V76h8.3l-.5 6.4c-.6 7.4-2.6 11.2-7.6 14.6-3.5 2.5-3.8 2.5-30 2.8-25.1.3-26.6.2-30.7-1.8-5.9-2.9-8.6-7.4-9.3-15.6l-.5-6.4H74v5.3zm17.8 4.4c-.3 1.5-1.4 1.8-6.8 1.8s-6.5-.3-6.8-1.8c-.3-1.5.5-1.7 6.8-1.7s7.1.2 6.8 1.7zM37 103c1.1.7 1.2 1.2.3 2.1-1.3 1.3-3.3.4-3.3-1.7 0-1.6.9-1.8 3-.4zm55.8 1.2c-.3.7-1.1 1.3-1.8 1.3s-1.5-.6-1.7-1.3c-.3-.7.4-1.2 1.7-1.2 1.3 0 2 .5 1.8 1.2z"/></svg>