<?xml version="1.0" standalone="no"?>
<!DOCTYPE svg PUBLIC "-//W3C//DTD SVG 20010904//EN"
 "http://www.w3.org/TR/2001/REC-SVG-20010904/DTD/svg10.dtd">
<svg version="1.0" xmlns="http://www.w3.org/2000/svg"
 width="24.000000pt" height="24.000000pt" viewBox="0 0 24.000000 24.000000"
 preserveAspectRatio="xMidYMid meet">

<g transform="translate(0.000000,24.000000) scale(0.100000,-0.100000)"
fill="#000000" stroke="none">
<path d="M62 198 c-7 -7 -12 -26 -12 -43 0 -17 -4 -35 -9 -40 -5 -6 -5 -18 0
-30 9 -18 9 -18 5 3 -4 20 -1 22 45 22 42 0 49 -3 49 -20 0 -13 7 -20 20 -20
13 0 20 7 20 20 0 11 4 20 9 20 5 0 7 -10 5 -23 -4 -20 -4 -20 5 -2 14 31 -4
40 -75 37 l-65 -2 3 36 c3 36 28 62 28 30 0 -9 7 -16 15 -16 20 0 19 10 -2 26
-22 17 -26 17 -41 2z m108 -93 c0 -8 -4 -15 -10 -15 -5 0 -10 7 -10 15 0 8 5
15 10 15 6 0 10 -7 10 -15z"/>
<path d="M55 50 c3 -5 11 -10 16 -10 6 0 7 5 4 10 -3 6 -11 10 -16 10 -6 0 -7
-4 -4 -10z"/>
<path d="M165 50 c-3 -5 -2 -10 4 -10 5 0 13 5 16 10 3 6 2 10 -4 10 -5 0 -13
-4 -16 -10z"/>
</g>
</svg>
