<?xml version="1.0" standalone="no"?>
<!DOCTYPE svg PUBLIC "-//W3C//DTD SVG 20010904//EN"
 "http://www.w3.org/TR/2001/REC-SVG-20010904/DTD/svg10.dtd">
<svg version="1.0" xmlns="http://www.w3.org/2000/svg"
 width="128.000000pt" height="128.000000pt" viewBox="0 0 128.000000 128.000000"
 preserveAspectRatio="xMidYMid meet">

<g transform="translate(0.000000,128.000000) scale(0.100000,-0.100000)"
fill="#000000" stroke="none">
<path d="M386 1100 c-15 -5 -37 -17 -48 -27 -44 -39 -48 -63 -48 -258 l0 -185
-40 0 c-27 0 -47 -7 -60 -20 -27 -27 -25 -46 5 -74 21 -20 25 -32 25 -80 0
-68 17 -111 59 -150 22 -21 31 -39 31 -62 0 -38 19 -57 57 -52 19 2 32 12 41
31 l13 27 214 0 214 0 13 -27 c25 -52 98 -40 98 16 0 18 12 38 36 61 47 44 64
85 64 156 0 48 4 60 25 80 30 28 32 47 5 74 -15 15 -33 20 -78 20 -50 0 -59 3
-67 23 -9 20 -18 22 -92 25 -78 3 -83 2 -99 -23 l-16 -25 -209 0 -209 0 0 170
c0 184 8 223 51 254 35 24 93 21 126 -8 l28 -24 -27 -27 c-31 -30 -46 -81 -29
-98 8 -8 34 -7 99 6 48 10 91 22 95 27 12 11 -18 67 -42 80 -11 5 -28 10 -38
10 -11 0 -30 14 -42 31 -23 31 -76 60 -108 58 -10 0 -31 -5 -47 -9z m215 -120
c30 -16 23 -27 -25 -39 -79 -19 -96 -11 -56 29 22 22 51 26 81 10z m317 -422
l-3 -83 -67 -3 -68 -3 0 86 0 85 70 0 71 0 -3 -82z m-178 17 c0 -13 -36 -15
-265 -15 -229 0 -265 2 -265 15 0 13 36 15 265 15 229 0 265 -2 265 -15z m330
0 c0 -12 -13 -15 -60 -15 -47 0 -60 3 -60 15 0 12 13 15 60 15 47 0 60 -3 60
-15z m-330 -108 c0 -83 15 -97 109 -97 46 0 82 5 89 12 7 7 12 39 12 75 l0 63
41 0 42 0 -5 -64 c-6 -74 -26 -112 -76 -146 -35 -25 -38 -25 -300 -28 -251 -3
-266 -2 -307 18 -59 29 -86 74 -93 156 l-5 64 247 0 246 0 0 -53z m178 -44
c-3 -15 -14 -18 -68 -18 -54 0 -65 3 -68 18 -3 15 5 17 68 17 63 0 71 -2 68
-17z m-548 -173 c11 -7 12 -12 3 -21 -13 -13 -33 -4 -33 17 0 16 9 18 30 4z
m558 -12 c-3 -7 -11 -13 -18 -13 -7 0 -15 6 -17 13 -3 7 4 12 17 12 13 0 20
-5 18 -12z"/>
</g>
</svg>
