<svg version="1.0" xmlns="http://www.w3.org/2000/svg" viewBox="0 0 24 24"><path d="M6.2 4.2C5.5 4.9 5 6.8 5 8.5c0 1.7-.4 3.5-.9 4-.5.6-.5 1.8 0 3 .9 1.8.9 1.8.5-.3-.4-2-.1-2.2 4.5-2.2 4.2 0 4.9.3 4.9 2 0 1.3.7 2 2 2s2-.7 2-2c0-1.1.4-2 .9-2s.7 1 .5 2.3c-.4 2-.4 2 .5.2 1.4-3.1-.4-4-7.5-3.7l-6.5.2.3-3.6C6.5 4.8 9 2.2 9 5.4c0 .9.7 1.6 1.5 1.6 2 0 1.9-1-.2-2.6-2.2-1.7-2.6-1.7-4.1-.2zM17 13.5c0 .8-.4 1.5-1 1.5-.5 0-1-.7-1-1.5s.5-1.5 1-1.5c.6 0 1 .7 1 1.5zM5.5 19c.3.5 1.1 1 1.6 1 .6 0 .7-.5.4-1-.3-.6-1.1-1-1.6-1-.6 0-.7.4-.4 1zm11 0c-.3.5-.2 1 .4 1 .5 0 1.3-.5 1.6-1 .3-.6.2-1-.4-1-.5 0-1.3.4-1.6 1z"/></svg>