<svg version="1.0" xmlns="http://www.w3.org/2000/svg" viewBox="0 0 128 128"><path d="M1.7 16.1C.1 17 0 20.4 0 64c0 45.4.1 47 1.9 48 2.9 1.5 8.7 1.2 10.5-.6 1.2-1.2 1.6-3.7 1.6-10.4 0-7.9.2-8.8 2-9.3 2.6-.7 2.6-2.4 0-3.2-1.7-.5-2-1.5-2-6.1V77h100v11l-45.2.2c-42.2.3-45.3.4-45.6 2-.3 1.7 2.4 1.8 45.2 1.8H114v8.9c0 10.3 1 12.1 6.6 12.1 7.6 0 7.4.7 7.4-25.4 0-26.1-.1-26.4-6.5-25.2-3.4.7-3.5.6-3.5-2.4 0-2.2-.9-4.1-3-6.1-2.9-2.9-3-3-12.7-2.7-7.9.2-9.8.6-9.8 1.8 0 1.2 1.8 1.6 9.4 1.8 5.2.1 10.1.8 10.8 1.4.9.7 1.3 3.7 1.3 8.9V73H47v-7.9c0-5.3.4-8.2 1.3-9 .9-.6 8.3-1.2 19.8-1.3 15.6-.3 18.4-.5 18.4-1.8s-4-1.6-28-2l-28-.5v-3.9c0-2.3-.5-4.1-1.2-4.4-.8-.2-1.3.5-1.3 2 0 5.3-6 9-8.9 5.4-1.4-1.7-5.1-14.2-5.1-17.2 0-2.4 2.9-5.4 5.2-5.4 2 0 4.3 2.8 5.5 6.5 1 3.2 4.3 4.8 4.3 2.1 0-.9-.7-3.4-1.7-5.7-1.9-4.8-6.6-7.5-10.6-6-2.1.8-2.5.6-3.6-2.6-.9-2.4-2.3-3.9-4.7-4.9-3.9-1.6-4.3-1.7-6.7-.3zm6.5 4.6c1.7 1.5 1.8 4.2 1.8 45V109H4V64c0-47 0-47.1 4.2-43.3zm25.4 35.9c-.3.9-.6 4.9-.6 9V73H14v-7.8c0-4.7.5-8.3 1.2-9 .8-.8 4.5-1.2 10.1-1.2 7.7 0 8.8.2 8.3 1.6zm10 0c-.3.9-.6 4.9-.6 9V73h-6v-7.8c0-8.4.9-10.2 4.8-10.2 1.8 0 2.3.4 1.8 1.6zM124 87.5V109h-6V89.1c0-16.8.2-20.2 1.6-21.5.8-.9 2.2-1.6 3-1.6 1.2 0 1.4 3.5 1.4 21.5z"/></svg>