<?xml version="1.0" standalone="no"?>
<!DOCTYPE svg PUBLIC "-//W3C//DTD SVG 20010904//EN"
 "http://www.w3.org/TR/2001/REC-SVG-20010904/DTD/svg10.dtd">
<svg version="1.0" xmlns="http://www.w3.org/2000/svg"
 width="128.000000pt" height="128.000000pt" viewBox="0 0 128.000000 128.000000"
 preserveAspectRatio="xMidYMid meet">

<g transform="translate(0.000000,128.000000) scale(0.100000,-0.100000)"
fill="#000000" stroke="none">
<path d="M17 1119 c-16 -9 -17 -43 -17 -479 0 -454 1 -470 19 -480 29 -15 87
-12 105 6 12 12 16 37 16 104 0 79 2 88 20 93 26 7 26 24 0 32 -17 5 -20 15
-20 61 l0 54 500 0 500 0 0 -55 0 -55 -452 -2 c-422 -3 -453 -4 -456 -20 -3
-17 24 -18 452 -18 l456 0 0 -89 c0 -103 10 -121 66 -121 76 0 74 -7 74 254 0
261 -1 264 -65 252 -34 -7 -35 -6 -35 24 0 22 -9 41 -30 61 -29 29 -30 30
-127 27 -79 -2 -98 -6 -98 -18 0 -12 18 -16 94 -18 52 -1 101 -8 108 -14 9 -7
13 -37 13 -89 l0 -79 -335 0 -335 0 0 79 c0 53 4 82 13 90 9 6 83 12 198 13
156 3 184 5 184 18 0 13 -40 16 -280 20 l-280 5 0 39 c0 23 -5 41 -12 44 -8 2
-13 -5 -13 -20 0 -53 -60 -90 -89 -54 -14 17 -51 142 -51 172 0 24 29 54 52
54 20 0 43 -28 55 -65 10 -32 43 -48 43 -21 0 9 -7 34 -17 57 -19 48 -66 75
-106 60 -21 -8 -25 -6 -36 26 -9 24 -23 39 -47 49 -39 16 -43 17 -67 3z m65
-46 c17 -15 18 -42 18 -450 l0 -433 -30 0 -30 0 0 450 c0 470 0 471 42 433z
m254 -359 c-3 -9 -6 -49 -6 -90 l0 -74 -95 0 -95 0 0 78 c0 47 5 83 12 90 8 8
45 12 101 12 77 0 88 -2 83 -16z m100 0 c-3 -9 -6 -49 -6 -90 l0 -74 -30 0
-30 0 0 78 c0 84 9 102 48 102 18 0 23 -4 18 -16z m804 -309 l0 -215 -30 0
-30 0 0 199 c0 168 2 202 16 215 8 9 22 16 30 16 12 0 14 -35 14 -215z"/>
</g>
</svg>
