<?xml version="1.0" standalone="no"?>
<!DOCTYPE svg PUBLIC "-//W3C//DTD SVG 20010904//EN"
 "http://www.w3.org/TR/2001/REC-SVG-20010904/DTD/svg10.dtd">
<svg version="1.0" xmlns="http://www.w3.org/2000/svg"
 width="24.000000pt" height="24.000000pt" viewBox="0 0 24.000000 24.000000"
 preserveAspectRatio="xMidYMid meet">

<g transform="translate(0.000000,24.000000) scale(0.100000,-0.100000)"
fill="#000000" stroke="none">
<path d="M0 120 c0 -73 3 -90 15 -90 12 0 15 13 15 55 0 42 3 55 15 55 9 0 15
-9 15 -22 0 -12 3 -19 6 -15 4 3 4 17 0 31 -4 17 -11 23 -21 20 -10 -4 -15 0
-15 16 0 14 4 19 13 15 6 -4 3 1 -7 9 -11 9 -23 16 -28 16 -4 0 -8 -40 -8 -90z
m17 -42 c-2 -24 -4 -5 -4 42 0 47 2 66 4 43 2 -24 2 -62 0 -85z"/>
<path d="M82 120 c0 -14 2 -19 5 -12 2 6 2 18 0 25 -3 6 -5 1 -5 -13z"/>
<path d="M210 86 c0 -43 3 -56 15 -56 11 0 15 11 15 41 0 23 -7 47 -15 55 -13
14 -15 9 -15 -40z m17 -28 c-2 -13 -4 -5 -4 17 -1 22 1 32 4 23 2 -10 2 -28 0
-40z"/>
</g>
</svg>
