<svg version="1.0" xmlns="http://www.w3.org/2000/svg" viewBox="0 0 24 24"><path d="M0 12c0 7.3.3 9 1.5 9S3 19.7 3 15.5 3.3 10 4.5 10c.9 0 1.5.9 1.5 2.2 0 1.2.3 1.9.6 1.5.4-.3.4-1.7 0-3.1-.4-1.7-1.1-2.3-2.1-2C3.5 9 3 8.6 3 7c0-1.4.4-1.9 1.3-1.5.6.4.3-.1-.7-.9C2.5 3.7 1.3 3 .8 3 .4 3 0 7 0 12zm1.7 4.2c-.2 2.4-.4.5-.4-4.2s.2-6.6.4-4.3c.2 2.4.2 6.2 0 8.5zM8.2 12c0 1.4.2 1.9.5 1.2.2-.6.2-1.8 0-2.5-.3-.6-.5-.1-.5 1.3zM21 15.4c0 4.3.3 5.6 1.5 5.6 1.1 0 1.5-1.1 1.5-4.1 0-2.3-.7-4.7-1.5-5.5-1.3-1.4-1.5-.9-1.5 4zm1.7 2.8c-.2 1.3-.4.5-.4-1.7-.1-2.2.1-3.2.4-2.3.2 1 .2 2.8 0 4z"/></svg>