<?xml version="1.0" standalone="no"?>
<!DOCTYPE svg PUBLIC "-//W3C//DTD SVG 20010904//EN"
 "http://www.w3.org/TR/2001/REC-SVG-20010904/DTD/svg10.dtd">
<svg version="1.0" xmlns="http://www.w3.org/2000/svg"
 width="24.000000pt" height="24.000000pt" viewBox="0 0 24.000000 24.000000"
 preserveAspectRatio="xMidYMid meet">

<g transform="translate(0.000000,24.000000) scale(0.100000,-0.100000)"
fill="#000000" stroke="none">
<path d="M195 200 c18 -20 17 -20 -89 -20 -69 0 -105 -4 -101 -10 3 -6 49 -10
102 -10 84 0 94 -2 83 -15 -23 -28 0 -30 27 -2 l27 26 -24 26 c-28 29 -52 34
-25 5z"/>
<path d="M20 95 l-23 -25 23 -25 c28 -29 51 -34 25 -5 -18 20 -17 20 91 22
l109 2 -109 5 c-94 5 -107 8 -93 20 18 14 22 31 9 31 -5 0 -19 -11 -32 -25z"/>
</g>
</svg>
