<svg version="1.0" xmlns="http://www.w3.org/2000/svg" viewBox="0 0 128 128"><path d="M113.4 3c-3.6 1.4-6.4 5.9-6.4 10.2 0 3.1.7 4.6 3 6.9 2.8 2.8 2.9 3.2 1.5 5.3-2.1 3.1-9.3 8.2-15.7 11-8.6 3.8-17.3 5.5-33.8 6.5-16.9 1.1-24.2 2.7-33.6 7.2-6.5 3-15.9 10.8-16.9 13.7-.3 1-2.1 2.4-4.1 3.1-6.3 2.3-9.2 10-5.7 15.1 2.7 4 4.5 4.9 9.1 5 3.5 0 4.9-.6 7.3-2.9 4.1-4.2 4.1-9.7-.2-14.6l-3.2-3.6 4.6-4.4c9.4-9 22.5-13.2 45.2-14.6 25.9-1.5 42.6-7.9 50.5-19.4 1.7-2.5 3.7-4.5 4.5-4.5.7 0 2.7-1.1 4.3-2.5 8.9-7.4.3-21.8-10.4-17.5zm6.2 26.5c-1 2.6-.7 80.8.3 82.4.5.8 1.6 1.1 2.5.8 1.5-.6 1.6-4.8 1.4-42.4-.3-37.6-.5-41.8-1.9-42.1-.9-.2-1.9.4-2.3 1.3z"/><path d="M51.1 56.6C49.1 58 49 59 49 71.4c0 18 0 18 14.4 18.4 8.6.3 11.2.1 13.1-1.2 2.9-1.9 3.2-3.8.9-6-1.2-1.2-3.7-1.6-10.5-1.6H58V70.4c0-5.8-.4-11.3-1-12.3-1.4-2.7-3.5-3.2-5.9-1.5zm-28.3 38c-4.3 2.4-7.8 5-7.8 5.8 0 1.6 16.6 11 18 10.1 2-1.3.9-3.2-3.2-5.6l-4.3-2.4 19.3-.3c10.5-.1 27.9-.1 38.5 0l19.2.3-4.2 2.4c-4.2 2.4-5.3 4.3-3.3 5.6 1.4.9 18-8.5 18-10.1C113 98.8 98.3 90 95.8 90c-3.2 0-1.9 2.8 2.5 5.4l4.2 2.6h-77l4-2.3c4.3-2.4 5.9-5.7 2.8-5.7-1 0-5.3 2.1-9.5 4.6zM4.7 92.7c-.4.3-.7 4.8-.7 10 0 7.7.3 9.5 1.6 10 .9.3 2 0 2.5-.8 1-1.6 1.2-15.9.3-18.3-.6-1.6-2.6-2.1-3.7-.9zm.9 27.9c-1.9 1.9-2 2.6-.4 4.2 1.7 1.7 115.9 1.7 117.6 0 1.6-1.6 1.5-2.3-.4-4.2-1.4-1.4-8-1.6-58.4-1.6s-57 .2-58.4 1.6z"/></svg>