<svg version="1.0" xmlns="http://www.w3.org/2000/svg" viewBox="0 0 24 24"><path d="M20.2 2.7c.1 1-.2 2.4-.6 3.2-.6.9.1.7 1.7-.5 3.2-2.3 3.5-4.4.6-4.4-1.4 0-1.9.6-1.7 1.7zm2.1 10.8c0 4.4.2 6.1.4 3.7.2-2.3.2-5.9 0-8-.2-2-.4-.1-.4 4.3zM9.8 8.7c1.2.2 3 .2 4 0 .9-.3-.1-.5-2.3-.4-2.2 0-3 .2-1.7.4zm-7 2.8C-.5 14.4-.8 16 2.1 16c1.6 0 2-.5 1.6-2-.3-1.3.2-2.5 1.6-3.5C6.5 9.7 7 9 6.5 9c-.6 0-2.2 1.2-3.7 2.5zm6.4 2.2c.2 2 .9 2.9 2.6 3.1 1.2.2 2.2-.1 2.2-.7s-.7-1.1-1.5-1.1-1.5-.9-1.5-2-.5-2-1.1-2c-.6 0-.9 1.2-.7 2.7zm-5.3 4.4c-.6.3-.3 1.1.6 1.9 1 .8 1.5.9 1.5.1 0-.7 2.2-1.1 6-1.1s6 .4 6 1.1c0 .8.5.7 1.5-.1.9-.7 1.4-1.5 1.1-1.7-.7-.7-15.7-.9-16.7-.2zm-2.8 1.5c0 1.1.3 1.4.6.6.3-.7.2-1.6-.1-1.9-.3-.4-.6.2-.5 1.3zM1 23c0 .6 4.3 1 11 1s11-.4 11-1-4.3-1-11-1-11 .4-11 1z"/></svg>