<?xml version="1.0" standalone="no"?>
<!DOCTYPE svg PUBLIC "-//W3C//DTD SVG 20010904//EN"
 "http://www.w3.org/TR/2001/REC-SVG-20010904/DTD/svg10.dtd">
<svg version="1.0" xmlns="http://www.w3.org/2000/svg"
 width="24.000000pt" height="24.000000pt" viewBox="0 0 24.000000 24.000000"
 preserveAspectRatio="xMidYMid meet">

<g transform="translate(0.000000,24.000000) scale(0.100000,-0.100000)"
fill="#000000" stroke="none">
<path d="M202 213 c1 -10 -2 -24 -6 -32 -6 -9 1 -7 17 5 32 23 35 44 6 44 -14
0 -19 -6 -17 -17z"/>
<path d="M223 105 c0 -44 2 -61 4 -37 2 23 2 59 0 80 -2 20 -4 1 -4 -43z"/>
<path d="M98 153 c12 -2 30 -2 40 0 9 3 -1 5 -23 4 -22 0 -30 -2 -17 -4z"/>
<path d="M28 125 c-33 -29 -36 -45 -7 -45 16 0 20 5 16 20 -3 13 2 25 16 35
12 8 17 15 12 15 -6 0 -22 -12 -37 -25z"/>
<path d="M92 103 c2 -20 9 -29 26 -31 12 -2 22 1 22 7 0 6 -7 11 -15 11 -8 0
-15 9 -15 20 0 11 -5 20 -11 20 -6 0 -9 -12 -7 -27z"/>
<path d="M39 59 c-6 -3 -3 -11 6 -19 10 -8 15 -9 15 -1 0 7 22 11 60 11 38 0
60 -4 60 -11 0 -8 5 -7 15 1 9 7 14 15 11 17 -7 7 -157 9 -167 2z"/>
<path d="M11 44 c0 -11 3 -14 6 -6 3 7 2 16 -1 19 -3 4 -6 -2 -5 -13z"/>
<path d="M10 10 c0 -6 43 -10 110 -10 67 0 110 4 110 10 0 6 -43 10 -110 10
-67 0 -110 -4 -110 -10z"/>
</g>
</svg>
