<?xml version="1.0" standalone="no"?>
<!DOCTYPE svg PUBLIC "-//W3C//DTD SVG 20010904//EN"
 "http://www.w3.org/TR/2001/REC-SVG-20010904/DTD/svg10.dtd">
<svg version="1.0" xmlns="http://www.w3.org/2000/svg"
 width="128.000000pt" height="128.000000pt" viewBox="0 0 128.000000 128.000000"
 preserveAspectRatio="xMidYMid meet">

<g transform="translate(0.000000,128.000000) scale(0.100000,-0.100000)"
fill="#000000" stroke="none">
<path d="M1134 1250 c-36 -14 -64 -59 -64 -102 0 -31 7 -46 30 -69 28 -28 29
-32 15 -53 -21 -31 -93 -82 -157 -110 -86 -38 -173 -55 -338 -65 -169 -11
-242 -27 -336 -72 -65 -30 -159 -108 -169 -137 -3 -10 -21 -24 -41 -31 -63
-23 -92 -100 -57 -151 27 -40 45 -49 91 -50 35 0 49 6 73 29 41 42 41 97 -2
146 l-32 36 46 44 c94 90 225 132 452 146 259 15 426 79 505 194 17 25 37 45
45 45 7 0 27 11 43 25 89 74 3 218 -104 175z"/>
<path d="M1196 985 c-10 -26 -7 -808 3 -824 5 -8 16 -11 25 -8 15 6 16 48 14
424 -3 376 -5 418 -19 421 -9 2 -19 -4 -23 -13z"/>
<path d="M511 714 c-20 -14 -21 -24 -21 -148 0 -180 0 -180 144 -184 86 -3
112 -1 131 12 29 19 32 38 9 60 -12 12 -37 16 -105 16 l-89 0 0 106 c0 58 -4
113 -10 123 -14 27 -35 32 -59 15z"/>
<path d="M228 334 c-43 -24 -78 -50 -78 -58 0 -16 166 -110 180 -101 20 13 9
32 -32 56 l-43 24 193 3 c105 1 279 1 385 0 l192 -3 -42 -24 c-42 -24 -53 -43
-33 -56 14 -9 180 85 180 101 0 16 -147 104 -172 104 -32 0 -19 -28 25 -54
l42 -26 -385 0 -385 0 40 23 c43 24 59 57 28 57 -10 0 -53 -21 -95 -46z"/>
<path d="M47 353 c-4 -3 -7 -48 -7 -100 0 -77 3 -95 16 -100 9 -3 20 0 25 8
10 16 12 159 3 183 -6 16 -26 21 -37 9z"/>
<path d="M56 74 c-19 -19 -20 -26 -4 -42 17 -17 1159 -17 1176 0 16 16 15 23
-4 42 -14 14 -80 16 -584 16 -504 0 -570 -2 -584 -16z"/>
</g>
</svg>
