<svg version="1.0" xmlns="http://www.w3.org/2000/svg" viewBox="0 0 128 128"><path d="M39 1.6C19.9 6.6 6.4 20.3 1.5 39.5-1.3 50.6.3 62.6 6 74c3.6 7.1 12.5 16.4 19.6 20.4 15.8 9 36.4 8.7 51.4-.8l5.5-3.5 19.1 18.9c12.2 12.2 19.7 19 21.1 19 2.4 0 5.3-3 5.3-5.5 0-1.1-8-9.9-19-20.9L90.1 82.5l3.5-5.5c9.5-15 9.8-35.6.8-51.4C83.7 6.7 59.4-3.8 39 1.6zm28.3 13.1c12.1 5.8 20.6 16.9 22.5 29.8 4.1 26.6-18.7 49.4-45.3 45.3-12.9-1.9-24-10.4-29.8-22.5-2.9-6.2-3.2-7.6-3.2-16.8 0-9.1.3-10.6 3.1-16.5 3.4-7.3 10.5-15 16.8-18.2C38.7 12 43.2 11 52 11.3c7.2.2 9.5.7 15.3 3.4z"/></svg>